# xmcd
#
# Track frame offsets: 
#        150
#        15435
#        29534
#        40851
#        53640
#        69605
#        82542
#        96653
#        111740
#        126526
#        138170
#        150367
#        162239
#        175649
#        187914
#        201819
#        214389
#        227208
#        247790
#        260884
#        276179
#        290298
#        305670
#
# Disc length: 4236 seconds
#
# Revision: 0
# Processed by: cddbd v1.5.2PL0 Copyright (c) Steve Scherf et al.
# Submitted via: ExactAudioCopy v0.99pb4
#
DISCID=48108a17
DTITLE=Various Artist - Murder: Songs From The Dark Side Of The Soul
DYEAR=2009
DGENRE=Crossover
TTITLE0=Jimmie Rodgers - Gamblin Bar Room Blues 2
TTITLE1=Ethel Waters - Frankie And Johnny
TTITLE2=Sonny Boy Williamson - Your Funeral My Trial
TTITLE3=Lord Executor - Seven Skeletons Found In The Yard
TTITLE4=Billy Boy Arnold - Prisoner's Plea
TTITLE5=Wilmouth Houdini And His Humming Birds - Bandsman Shooting Cas
TTITLE5=e
TTITLE6=Roosevelt Sykes - 44 Blues
TTITLE7=Memphis Minnie - Biting Bug Blues
TTITLE8=Bessie Smith and Her Blue Boys - Send Me To The 'lectric Chair
TTITLE9=Wade Mainer and Zeke Morris - Down In The Willow
TTITLE10=Blind Boy Fuller - Pistol Slapper Blues
TTITLE11=A'nt Idy Harper and The Coon Creek Girls - Poor Naomi Wise
TTITLE12=Honeyboy - Bloodstains On The Wall
TTITLE13=Little Walter And His Jukes - Boom, Boom, Out Goes The Light
TTITLE14=Louis Armstrong with Louis Jordan And His Tympany Five - You 
TTITLE14=Rascal, You (I'll Be Glad When You're Dead)
TTITLE15=Champion Jack Dupree - I'm Going Down With You
TTITLE16=The Stanley Brothers - Pretty Polly
TTITLE17=Archibald - Stack-A-Lee Part 1 and 2
TTITLE18=Henry Thomas (Ragtime Texas) - Bob McKinney
TTITLE19=G. B. Grayson and Henry Whitter - Rose Conley
TTITLE20=Billie Holiday - Strange Fruit
TTITLE21=Lonnie Johnson - Got The Blues For Murder Only
TTITLE22=The Delmore Brothers - The Fugitive's Lament
EXTD=
EXTT0=
EXTT1=
EXTT2=
EXTT3=
EXTT4=
EXTT5=
EXTT6=
EXTT7=
EXTT8=
EXTT9=
EXTT10=
EXTT11=
EXTT12=
EXTT13=
EXTT14=
EXTT15=
EXTT16=
EXTT17=
EXTT18=
EXTT19=
EXTT20=
EXTT21=
EXTT22=
PLAYORDER=
